<?xml version="1.0" encoding="utf-8"?>
<svg viewBox="59.968 185.665 350.397 107.568" width="350.397" height="107.568" xmlns="http://www.w3.org/2000/svg">
  <path d="M 61.903 185.665 L 337.252 185.665 C 337.552 185.665 337.848 185.678 338.141 185.704 L 351.891 185.704 L 351.891 185.746 C 352.168 185.737 352.449 185.733 352.734 185.735 L 398.785 186.009 C 398.76 186.046 398.736 186.083 398.712 186.12 C 405.164 186.218 410.365 191.45 410.365 197.889 C 410.365 200.281 409.647 202.507 408.414 204.364 C 408.416 204.365 408.418 204.365 408.42 204.365 C 407.641 205.544 406.779 206.781 405.833 208.074 L 352.166 281.48 C 349.685 284.873 347.494 287.477 345.594 289.292 C 345.524 289.309 345.455 289.326 345.385 289.343 C 343.201 291.252 340.481 292.569 337.478 293.041 C 337.415 293.092 337.353 293.142 337.291 293.193 C 337.278 293.193 337.265 293.193 337.252 293.193 L 336.139 293.193 C 335.765 293.22 335.387 293.233 335.006 293.233 C 334.625 293.233 334.247 293.22 333.873 293.193 L 61.903 293.193 C 61.566 293.193 61.233 293.176 60.904 293.144 L 60.904 185.852 L 59.968 185.852 C 60.594 185.729 61.241 185.665 61.903 185.665 Z" style="stroke: rgb(0, 0, 0); stroke-width: 0px;" transform="matrix(-1, 0, 0, -1, 470.333008, 478.89801)"/>
</svg>