<?xml version="1.0" encoding="utf-8"?>
<svg viewBox="59.171 185.666 350.397 107.568" xmlns="http://www.w3.org/2000/svg">
  <path d="M 61.106 185.666 L 336.455 185.666 C 336.755 185.666 337.051 185.679 337.344 185.705 L 351.094 185.705 L 351.094 185.747 C 351.371 185.738 351.652 185.734 351.937 185.736 L 397.988 186.01 C 397.963 186.047 397.939 186.084 397.915 186.121 C 404.367 186.219 409.568 191.451 409.568 197.89 C 409.568 200.282 408.85 202.508 407.617 204.365 C 407.619 204.366 407.621 204.366 407.623 204.366 C 406.844 205.545 405.982 206.782 405.036 208.075 L 351.369 281.481 C 348.888 284.874 346.697 287.478 344.797 289.293 C 344.727 289.31 344.658 289.327 344.588 289.344 C 342.404 291.253 339.684 292.57 336.681 293.042 C 336.618 293.093 336.556 293.143 336.494 293.194 C 336.481 293.194 336.468 293.194 336.455 293.194 L 335.342 293.194 C 334.968 293.221 334.59 293.234 334.209 293.234 C 333.828 293.234 333.45 293.221 333.076 293.194 L 61.106 293.194 C 60.769 293.194 60.436 293.177 60.107 293.145 L 60.107 185.853 L 59.171 185.853 C 59.797 185.73 60.444 185.666 61.106 185.666 Z" style="stroke: rgb(0, 0, 0); stroke-width: 0px;"/>
</svg>