<?xml version="1.0" encoding="utf-8"?>
<svg viewBox="-0.693 0.297 350.397 107.568" width="350.397" height="107.568" xmlns="http://www.w3.org/2000/svg">
  <path d="M 1.242 0.297 L 276.591 0.297 C 276.891 0.297 277.187 0.31 277.48 0.336 L 291.23 0.336 L 291.23 0.378 C 291.507 0.369 291.788 0.365 292.073 0.367 L 338.124 0.641 C 338.099 0.678 338.075 0.715 338.051 0.752 C 344.503 0.85 349.704 6.082 349.704 12.521 C 349.704 14.913 348.986 17.139 347.753 18.996 C 347.755 18.997 347.757 18.997 347.759 18.997 C 346.98 20.176 346.118 21.413 345.172 22.706 L 291.505 96.112 C 289.024 99.505 286.833 102.109 284.933 103.924 C 284.863 103.941 284.794 103.958 284.724 103.975 C 282.54 105.884 279.82 107.201 276.817 107.673 C 276.754 107.724 276.692 107.774 276.63 107.825 C 276.617 107.825 276.604 107.825 276.591 107.825 L 275.478 107.825 C 275.104 107.852 274.726 107.865 274.345 107.865 C 273.964 107.865 273.586 107.852 273.212 107.825 L 1.242 107.825 C 0.905 107.825 0.572 107.808 0.243 107.776 L 0.243 0.484 L -0.693 0.484 C -0.067 0.361 0.58 0.297 1.242 0.297 Z" style="stroke: rgb(0, 0, 0); stroke-width: 0px;"/>
</svg>