<?xml version="1.0" encoding="utf-8"?>
<svg viewBox="58.201 185.665 350.397 107.568" width="350.397" height="107.568" xmlns="http://www.w3.org/2000/svg">
  <path d="M 60.136 185.665 L 335.485 185.665 C 335.785 185.665 336.081 185.678 336.374 185.704 L 350.124 185.704 L 350.124 185.746 C 350.401 185.737 350.682 185.733 350.967 185.735 L 397.018 186.009 C 396.993 186.046 396.969 186.083 396.945 186.12 C 403.397 186.218 408.598 191.45 408.598 197.889 C 408.598 200.281 407.88 202.507 406.647 204.364 C 406.649 204.365 406.651 204.365 406.653 204.365 C 405.874 205.544 405.012 206.781 404.066 208.074 L 350.399 281.48 C 347.918 284.873 345.727 287.477 343.827 289.292 C 343.757 289.309 343.688 289.326 343.618 289.343 C 341.434 291.252 338.714 292.569 335.711 293.041 C 335.648 293.092 335.586 293.142 335.524 293.193 C 335.511 293.193 335.498 293.193 335.485 293.193 L 334.372 293.193 C 333.998 293.22 333.62 293.233 333.239 293.233 C 332.858 293.233 332.48 293.22 332.106 293.193 L 60.136 293.193 C 59.799 293.193 59.466 293.176 59.137 293.144 L 59.137 185.852 L 58.201 185.852 C 58.827 185.729 59.474 185.665 60.136 185.665 Z" style="stroke: rgb(0, 0, 0); stroke-width: 0px;"/>
</svg>